<?xml version="1.0" encoding="UTF-8" standalone="no"?>
<!-- Created with Inkscape (http://www.inkscape.org/) -->

<svg
   xmlns:dc="http://purl.org/dc/elements/1.1/"
   xmlns:cc="http://creativecommons.org/ns#"
   xmlns:rdf="http://www.w3.org/1999/02/22-rdf-syntax-ns#"
   xmlns:svg="http://www.w3.org/2000/svg"
   xmlns="http://www.w3.org/2000/svg"
   xmlns:xlink="http://www.w3.org/1999/xlink"
   xmlns:sodipodi="http://sodipodi.sourceforge.net/DTD/sodipodi-0.dtd"
   xmlns:inkscape="http://www.inkscape.org/namespaces/inkscape"
   id="svg3300"
   version="1.1"
   inkscape:version="0.48.5 r10040"
   width="526.17499"
   height="372.04999"
   xml:space="preserve"
   sodipodi:docname="Rueckseite.svg"
   inkscape:export-filename="/Users/iwo/Downloads/pr.git/Postkarte/Rueckseite_600dpi.png"
   inkscape:export-xdpi="600"
   inkscape:export-ydpi="600"><metadata
     id="metadata3306"><rdf:RDF><cc:Work
         rdf:about=""><dc:format>image/svg+xml</dc:format><dc:type
           rdf:resource="http://purl.org/dc/dcmitype/StillImage" /><dc:title /></cc:Work></rdf:RDF></metadata><defs
     id="defs3304"><clipPath
       clipPathUnits="userSpaceOnUse"
       id="clipPath3316"><path
         d="m 0,0 0,2976 4209,0 L 4209,0 0,0 z"
         id="path3318"
         inkscape:connector-curvature="0" /></clipPath><clipPath
       clipPathUnits="userSpaceOnUse"
       id="clipPath3322"><path
         d="m 4209.45,-28.082 -4209.45,0 0,3004.462 4209.45,0 0,-3004.462 m -1676.42,304.461 0,0 c 653.38,0 1183.03,531.883 1183.03,1188.001 l 0,0 c 0,656.12 -529.65,1188 -1183.03,1188 -478.94,0 -891.38,-285.76 -1077.47,-696.79 -19.94,1.46 -40.05,2.2 -60.36,2.2 -450.938,0 -816.477,-365.55 -816.477,-816.48 0,-450.919 365.539,-816.47 816.477,-816.47 178.15,0 342.97,57.051 477.19,153.89 188.65,-127.75 415.99,-202.351 660.64,-202.351"
         id="path3324"
         inkscape:connector-curvature="0" /></clipPath><linearGradient
       x1="0"
       y1="0"
       x2="1"
       y2="0"
       gradientUnits="userSpaceOnUse"
       gradientTransform="matrix(0,311.574,311.574,0,218.17,-13.937)"
       spreadMethod="pad"
       id="linearGradient3326"><stop
         style="stop-color:#fecd43;stop-opacity:1;"
         offset="0"
         id="stop3328" /><stop
         style="stop-color:#ffedbb;stop-opacity:1;"
         offset="1"
         id="stop3330" /></linearGradient><clipPath
       clipPathUnits="userSpaceOnUse"
       id="clipPath3338"><path
         d="m 1395.2,324.84 c -450.938,0 -816.477,365.551 -816.477,816.47 0,450.93 365.539,816.48 816.477,816.48 20.31,0 40.42,-0.74 60.36,-2.2 -22.78,-50.31 -42.19,-102.55 -57.89,-156.32 -0.81,0.01 -1.66,0.01 -2.48,0.01 -361.96,-0.02 -655.268,-294.62 -655.272,-657.97 l 16.031,0 16.031,0 -16.031,0 -16.031,0 c 0.004,-363.341 293.312,-657.951 655.272,-657.958 126.83,0 245.23,36.168 345.54,98.796 41.35,-37.476 85.32,-72.039 131.66,-103.418 C 1738.17,381.891 1573.35,324.84 1395.2,324.84 m -0.01,190.57 C 1223.06,515.422 1067.37,585.422 954.535,698.711 841.727,812.02 771.988,968.398 771.98,1141.31 c 0.008,172.92 69.747,329.3 182.555,442.61 111.435,111.88 264.665,181.54 434.255,183.26 -25.3,-96.67 -38.77,-198.16 -38.77,-302.8 0,-41.01 2.07,-81.55 6.11,-121.48 l -104.22,104.69 -150.52,0 106.55,-107.04 -213.28,-0.01 0,-107.07 213.28,0.03 -106.55,-107.05 150.52,0 118.2,118.74 c 46.38,-249.71 170.53,-471.928 346.28,-640.362 -93.8,-56.777 -203.66,-89.406 -321.2,-89.418"
         id="path3340"
         inkscape:connector-curvature="0" /></clipPath><linearGradient
       x1="0"
       y1="0"
       x2="1"
       y2="0"
       gradientUnits="userSpaceOnUse"
       gradientTransform="matrix(0,311.574,311.574,0,218.17,-13.937)"
       spreadMethod="pad"
       id="linearGradient3342"><stop
         style="stop-opacity:1;stop-color:#ffffff"
         offset="0"
         id="stop3344" /><stop
         style="stop-opacity:1;stop-color:#fcd053"
         offset="1"
         id="stop3346" /></linearGradient><clipPath
       clipPathUnits="userSpaceOnUse"
       id="clipPath3354"><path
         d="m 2533.03,276.379 0,0 c -244.65,0 -471.99,74.601 -660.64,202.351 -46.34,31.379 -90.31,65.942 -131.66,103.418 55.33,34.551 105.17,77.161 147.87,126.184 76.8,-66.023 163.82,-120.461 258.43,-160.66 118.64,-50.41 249.28,-78.293 385.89,-78.293 0.04,0 0.08,0 0.11,0 0.07,0 0.12,0 0.2,0 204.96,0.012 396.21,62.812 554.24,170.09 158.15,107.32 283.66,259.07 358.92,437.721 50.17,119.06 77.89,250.13 77.88,387.2 0.03,205.65 -62.42,397.54 -169.24,556.23 -106.81,158.74 -257.94,284.84 -436,360.49 -118.67,50.41 -249.35,78.3 -386,78.28 -0.08,0 -0.12,0 -0.2,0 -204.96,0 -396.21,-62.81 -554.23,-170.09 -158.16,-107.32 -283.66,-259.07 -358.92,-437.72 -11.23,-26.64 -21.34,-53.9 -30.26,-81.69 -60.63,18.87 -125,29.13 -191.75,29.38 15.7,53.77 35.11,106.01 57.89,156.32 186.09,411.03 598.53,696.79 1077.47,696.79 653.38,0 1183.03,-531.88 1183.03,-1188 l 0,0 c 0,-656.118 -529.65,-1188.001 -1183.03,-1188.001 m -816.64,328.449 c -175.75,168.434 -299.9,390.652 -346.28,640.362 l 41.64,41.83 -55.62,55.88 c -4.04,39.93 -6.11,80.47 -6.11,121.48 0,104.64 13.47,206.13 38.77,302.8 2.13,0.02 4.27,0.03 6.4,0.03 64.4,0 126.51,-9.8 184.92,-28 -24.96,-87.38 -38.32,-179.66 -38.31,-274.82 l 96.3,0 96.31,0 -96.31,0 -96.3,0 c -0.04,-205.66 62.42,-397.55 169.24,-556.242 44.06,-65.488 95.65,-125.41 153.58,-178.527 -9.24,-10.621 -18.85,-20.941 -28.77,-30.91 -35.79,-35.93 -75.9,-67.512 -119.46,-93.883 m 816.64,57.16 c -165.65,0.043 -318.72,50.391 -446.3,136.871 -32.87,22.301 -64.02,47.012 -93.17,73.86 14.45,32.41 26.37,66.222 35.5,101.152 127.56,-132.121 306.19,-214.23 503.97,-214.242 387.69,0.012 701.86,315.581 701.86,704.761 0,389.18 -314.17,704.74 -701.86,704.76 -335.42,-0.02 -615.81,-236.22 -685.33,-551.95 -25.71,24.66 -53.42,47.24 -82.86,67.47 23.33,82.3 59.41,159.13 106,228.43 86.18,128.13 208.34,229.94 351.49,290.72 95.47,40.54 200.22,62.95 310.7,62.96 165.65,-0.04 318.73,-50.39 446.3,-136.87 127.51,-86.49 228.96,-209.17 289.55,-353.09 40.41,-95.97 62.77,-201.32 62.78,-312.43 -0.04,-166.61 -50.27,-320.54 -136.44,-448.72 C 3109.05,887.551 2986.89,785.73 2843.73,724.949 2748.27,684.422 2643.51,662 2533.03,661.988 m 0,129.703 c -185,0.008 -352.33,75.25 -473.6,197.008 -7.41,7.442 -14.65,15.061 -21.71,22.841 8.36,41.95 12.75,85.35 12.75,129.77 0,173.23 -66.67,330.83 -175.66,448.33 25.41,135.57 91.3,256.71 184.62,350.44 121.27,121.75 288.61,196.99 473.6,197 184.99,-0.01 352.33,-75.25 473.6,-197 121.24,-121.78 196.19,-289.86 196.2,-475.69 -0.01,-185.83 -74.96,-353.92 -196.2,-475.691 -121.27,-121.758 -288.61,-197 -473.6,-197.008 m 206.94,223.469 0,0 -180.43,181.24 361.16,0.03 0,181.21 -361.16,0 180.43,181.25 -254.87,0 -270.64,-271.87 270.64,-271.86 254.87,0 M 1968.9,896.422 c -72.53,72.726 -131.24,159.388 -171.72,255.528 -40.4,95.97 -62.76,201.32 -62.77,312.44 0.01,64.54 7.56,127.19 21.81,187.16 28.39,-20.3 55.03,-42.94 79.63,-67.63 1.53,-1.54 3.07,-3.1 4.59,-4.66 -6.11,-37.39 -9.28,-75.75 -9.28,-114.87 l 16.03,0 16.03,0 -16.03,0 -16.03,0 c 0,-176.73 64.8,-338.3 171.84,-462.01 -8.27,-36.65 -19.74,-72.071 -34.1,-105.958 m 41.88,146.718 c -92.33,115.3 -147.55,261.73 -147.56,421.25 0,28.52 1.77,56.63 5.2,84.21 93.51,-109.48 149.98,-251.69 149.98,-407.29 0,-33.4 -2.6,-66.19 -7.62,-98.17"
         id="path3356"
         inkscape:connector-curvature="0" /></clipPath><linearGradient
       x1="0"
       y1="0"
       x2="1"
       y2="0"
       gradientUnits="userSpaceOnUse"
       gradientTransform="matrix(0,311.574,311.574,0,218.17,-13.937)"
       spreadMethod="pad"
       id="linearGradient3358"><stop
         style="stop-opacity:1;stop-color:#ffffff"
         offset="0"
         id="stop3360" /><stop
         style="stop-opacity:1;stop-color:#fcd053"
         offset="1"
         id="stop3362" /></linearGradient><clipPath
       clipPathUnits="userSpaceOnUse"
       id="clipPath3370"><path
         d="m 1395.19,483.352 c -361.96,0.007 -655.268,294.617 -655.272,657.958 l 16.031,0 16.031,0 -16.031,0 -16.031,0 c 0.004,363.35 293.312,657.95 655.272,657.97 0.82,0 1.67,0 2.48,-0.01 66.75,-0.25 131.12,-10.51 191.75,-29.38 -3.26,-10.16 -6.36,-20.38 -9.31,-30.68 -58.41,18.2 -120.52,28 -184.92,28 -2.13,0 -4.27,-0.01 -6.4,-0.03 C 1219.2,1765.46 1065.97,1695.8 954.535,1583.92 841.727,1470.61 771.988,1314.23 771.98,1141.31 771.988,968.398 841.727,812.02 954.535,698.711 1067.37,585.422 1223.06,515.422 1395.19,515.41 c 117.54,0.012 227.4,32.641 321.2,89.418 43.56,26.371 83.67,57.953 119.46,93.883 9.92,9.969 19.53,20.289 28.77,30.91 7.88,-7.223 15.87,-14.32 23.98,-21.289 -42.7,-49.023 -92.54,-91.633 -147.87,-126.184 -100.31,-62.628 -218.71,-98.796 -345.54,-98.796 m 598.37,389.367 c -8.39,7.722 -16.61,15.621 -24.66,23.703 14.36,33.887 25.83,69.308 34.1,105.958 8.43,-9.739 17.12,-19.239 26.06,-28.509 -9.13,-34.93 -21.05,-68.742 -35.5,-101.152 m 44.16,138.821 c -9.29,10.25 -18.28,20.79 -26.94,31.6 5.02,31.98 7.62,64.77 7.62,98.17 0,155.6 -56.47,297.81 -149.98,407.29 1.72,13.81 3.85,27.5 6.39,41.04 108.99,-117.5 175.66,-275.1 175.66,-448.33 0,-44.42 -4.39,-87.82 -12.75,-129.77 m -197.28,567.72 c -1.52,1.56 -3.06,3.12 -4.59,4.66 -24.6,24.69 -51.24,47.33 -79.63,67.63 2.65,11.14 5.52,22.17 8.62,33.12 29.44,-20.23 57.15,-42.81 82.86,-67.47 -2.75,-12.52 -5.18,-25.18 -7.26,-37.94"
         id="path3372"
         inkscape:connector-curvature="0" /></clipPath><linearGradient
       x1="0"
       y1="0"
       x2="1"
       y2="0"
       gradientUnits="userSpaceOnUse"
       gradientTransform="matrix(0,311.574,311.574,0,218.17,-13.937)"
       spreadMethod="pad"
       id="linearGradient3374"><stop
         style="stop-opacity:1;stop-color:#f8ccdc"
         offset="0"
         id="stop3376" /><stop
         style="stop-opacity:1;stop-color:#f6a344"
         offset="1"
         id="stop3378" /></linearGradient><clipPath
       clipPathUnits="userSpaceOnUse"
       id="clipPath3386"><path
         d="m 2739.97,1015.16 -254.87,0 -270.64,271.86 270.64,271.87 254.87,0 -180.43,-181.25 361.16,0 0,-181.21 -361.16,-0.03 180.43,-181.24"
         id="path3388"
         inkscape:connector-curvature="0" /></clipPath><linearGradient
       x1="0"
       y1="0"
       x2="1"
       y2="0"
       gradientUnits="userSpaceOnUse"
       gradientTransform="matrix(0,311.574,311.574,0,218.17,-13.937)"
       spreadMethod="pad"
       id="linearGradient3390"><stop
         style="stop-opacity:1;stop-color:#feebca"
         offset="0"
         id="stop3392" /><stop
         style="stop-opacity:1;stop-color:#fbbf28"
         offset="1"
         id="stop3394" /></linearGradient><clipPath
       clipPathUnits="userSpaceOnUse"
       id="clipPath3402"><path
         d="m 1251.91,1126.45 -150.52,0 106.55,107.05 -213.28,-0.03 0,107.07 213.28,0.01 -106.55,107.04 150.52,0 104.22,-104.69 55.62,-55.88 -41.64,-41.83 -118.2,-118.74"
         id="path3404"
         inkscape:connector-curvature="0" /></clipPath><linearGradient
       x1="0"
       y1="0"
       x2="1"
       y2="0"
       gradientUnits="userSpaceOnUse"
       gradientTransform="matrix(0,311.574,311.574,0,218.17,-13.937)"
       spreadMethod="pad"
       id="linearGradient3406"><stop
         style="stop-opacity:1;stop-color:#feebca"
         offset="0"
         id="stop3408" /><stop
         style="stop-opacity:1;stop-color:#fbbf28"
         offset="1"
         id="stop3410" /></linearGradient><clipPath
       clipPathUnits="userSpaceOnUse"
       id="clipPath3418"><path
         d="m 2533.23,469.379 c -0.08,0 -0.13,0 -0.2,0 -0.03,0 -0.07,0 -0.11,0 -136.61,0 -267.25,27.883 -385.89,78.293 -94.61,40.199 -181.63,94.637 -258.43,160.66 -8.11,6.969 -16.1,14.066 -23.98,21.289 -57.93,53.117 -109.52,113.039 -153.58,178.527 -106.82,158.692 -169.28,350.582 -169.24,556.242 l 96.3,0 96.31,0 -96.31,0 -96.3,0 c -0.01,95.16 13.35,187.44 38.31,274.82 2.95,10.3 6.05,20.52 9.31,30.68 8.92,27.79 19.03,55.05 30.26,81.69 75.26,178.65 200.76,330.4 358.92,437.72 158.02,107.28 349.27,170.09 554.23,170.09 0.08,0 0.12,0 0.2,0 136.65,0.02 267.33,-27.87 386,-78.28 178.06,-75.65 329.19,-201.75 436,-360.49 106.82,-158.69 169.27,-350.58 169.24,-556.23 0.01,-137.07 -27.71,-268.14 -77.88,-387.2 C 3371.13,898.539 3245.62,746.789 3087.47,639.469 2929.44,532.191 2738.19,469.391 2533.23,469.379 m -539.67,403.34 c 29.15,-26.848 60.3,-51.559 93.17,-73.86 127.58,-86.48 280.65,-136.828 446.3,-136.871 110.48,0.012 215.24,22.434 310.7,62.961 143.16,60.781 265.32,162.602 351.49,290.721 86.17,128.18 136.4,282.11 136.44,448.72 -0.01,111.11 -22.37,216.46 -62.78,312.43 -60.59,143.92 -162.04,266.6 -289.55,353.09 -127.57,86.48 -280.65,136.83 -446.3,136.87 -110.48,-0.01 -215.23,-22.42 -310.7,-62.96 -143.15,-60.78 -265.31,-162.59 -351.49,-290.72 -46.59,-69.3 -82.67,-146.13 -106,-228.43 -3.1,-10.95 -5.97,-21.98 -8.62,-33.12 -14.25,-59.97 -21.8,-122.62 -21.81,-187.16 0.01,-111.12 22.37,-216.47 62.77,-312.44 40.48,-96.14 99.19,-182.802 171.72,-255.528 8.05,-8.082 16.27,-15.981 24.66,-23.703"
         id="path3420"
         inkscape:connector-curvature="0" /></clipPath><linearGradient
       x1="0"
       y1="0"
       x2="1"
       y2="0"
       gradientUnits="userSpaceOnUse"
       gradientTransform="matrix(0,311.574,311.574,0,218.17,-13.937)"
       spreadMethod="pad"
       id="linearGradient3422"><stop
         style="stop-opacity:1;stop-color:#f8ccdc"
         offset="0"
         id="stop3424" /><stop
         style="stop-opacity:1;stop-color:#f6a344"
         offset="1"
         id="stop3426" /></linearGradient><clipPath
       clipPathUnits="userSpaceOnUse"
       id="clipPath3434"><path
         d="m 2533.03,759.629 c -197.78,0.012 -376.41,82.121 -503.97,214.242 -8.94,9.27 -17.63,18.77 -26.06,28.509 -107.04,123.71 -171.84,285.28 -171.84,462.01 l 16.03,0 16.03,0 -16.03,0 -16.03,0 c 0,39.12 3.17,77.48 9.28,114.87 2.08,12.76 4.51,25.42 7.26,37.94 69.52,315.73 349.91,551.93 685.33,551.95 387.69,-0.02 701.86,-315.58 701.86,-704.76 0,-389.18 -314.17,-704.749 -701.86,-704.761 m -495.31,251.911 c 7.06,-7.78 14.3,-15.399 21.71,-22.841 121.27,-121.758 288.6,-197 473.6,-197.008 184.99,0.008 352.33,75.25 473.6,197.008 121.24,121.771 196.19,289.861 196.2,475.691 -0.01,185.83 -74.96,353.91 -196.2,475.69 -121.27,121.75 -288.61,196.99 -473.6,197 -184.99,-0.01 -352.33,-75.25 -473.6,-197 -93.32,-93.73 -159.21,-214.87 -184.62,-350.44 -2.54,-13.54 -4.67,-27.23 -6.39,-41.04 -3.43,-27.58 -5.2,-55.69 -5.2,-84.21 0.01,-159.52 55.23,-305.95 147.56,-421.25 8.66,-10.81 17.65,-21.35 26.94,-31.6"
         id="path3436"
         inkscape:connector-curvature="0" /></clipPath><linearGradient
       x1="0"
       y1="0"
       x2="1"
       y2="0"
       gradientUnits="userSpaceOnUse"
       gradientTransform="matrix(0,311.574,311.574,0,218.17,-13.937)"
       spreadMethod="pad"
       id="linearGradient3438"><stop
         style="stop-opacity:1;stop-color:#f8ccdc"
         offset="0"
         id="stop3440" /><stop
         style="stop-opacity:1;stop-color:#f6a344"
         offset="1"
         id="stop3442" /></linearGradient><linearGradient
       inkscape:collect="always"
       xlink:href="#linearGradient3326-6"
       id="linearGradient5866-1"
       x1="14.173228"
       y1="14.175962"
       x2="14.173228"
       y2="357.87677"
       gradientUnits="userSpaceOnUse"
       gradientTransform="matrix(0.81063127,0,0,0.8149533,-2.7969759,-300.42165)" /><linearGradient
       x1="0"
       y1="0"
       x2="1"
       y2="0"
       gradientUnits="userSpaceOnUse"
       gradientTransform="matrix(0,311.574,311.574,0,218.17,-13.937)"
       spreadMethod="pad"
       id="linearGradient3326-6"><stop
         style="stop-color:#fecd43;stop-opacity:1;"
         offset="0"
         id="stop3328-7" /><stop
         style="stop-color:#ffedbb;stop-opacity:1;"
         offset="1"
         id="stop3330-6" /></linearGradient><linearGradient
       inkscape:collect="always"
       xlink:href="#linearGradient3326-6"
       id="linearGradient4007"
       gradientUnits="userSpaceOnUse"
       gradientTransform="matrix(1.0132891,0,0,1.0186916,-3.4962199,-3.477128)"
       x1="14.173228"
       y1="14.175962"
       x2="14.173228"
       y2="357.87677" /></defs><sodipodi:namedview
     pagecolor="#ffffff"
     bordercolor="#666666"
     borderopacity="1"
     objecttolerance="10"
     gridtolerance="10"
     guidetolerance="10"
     inkscape:pageopacity="0"
     inkscape:pageshadow="2"
     inkscape:window-width="1280"
     inkscape:window-height="1004"
     id="namedview3302"
     showgrid="false"
     inkscape:zoom="1.7417014"
     inkscape:cx="285.19233"
     inkscape:cy="163.05895"
     inkscape:window-x="-2"
     inkscape:window-y="-3"
     inkscape:window-maximized="1"
     inkscape:current-layer="layer5"
     showguides="true"
     inkscape:guide-bbox="true"
     inkscape:document-units="mm"
     units="mm"><sodipodi:guide
       orientation="1,0"
       position="0,0"
       id="guide4333" /><sodipodi:guide
       orientation="0,1"
       position="0,372.04724"
       id="guide4335" /><sodipodi:guide
       orientation="0,1"
       position="526.1811,0"
       id="guide4337" /><sodipodi:guide
       orientation="1,0"
       position="526.1811,372.04724"
       id="guide4339" /><sodipodi:guide
       orientation="1,0"
       position="-7.0866142,-7.0866142"
       id="guide4353" /><sodipodi:guide
       orientation="1,0"
       position="533.26772,379.13386"
       id="guide4355" /><sodipodi:guide
       orientation="0,1"
       position="-7.0866142,379.13386"
       id="guide4359" /><sodipodi:guide
       orientation="0,1"
       position="533.26772,-7.0866142"
       id="guide4361" /><sodipodi:guide
       orientation="0,1"
       position="14.173228,357.87402"
       id="guide4363" /><sodipodi:guide
       orientation="1,0"
       position="14.173228,14.173228"
       id="guide4365" /><sodipodi:guide
       orientation="1,0"
       position="512.00787,357.87402"
       id="guide4367" /><sodipodi:guide
       orientation="0,1"
       position="512.00787,14.173228"
       id="guide4369" /></sodipodi:namedview><g
     inkscape:groupmode="layer"
     id="layer6"
     inkscape:label="hg"><rect
       style="fill:url(#linearGradient4007);fill-opacity:1;stroke:none"
       id="rect5858"
       width="540.35431"
       height="386.22046"
       x="-7.0866146"
       y="-7.0838623" /></g><g
     inkscape:groupmode="layer"
     id="layer5"
     inkscape:label="EbeneÜ"
     style="opacity:0.53783784"><circle
       sodipodi:ry="27.5"
       sodipodi:rx="27.5"
       sodipodi:cy="44"
       sodipodi:cx="74"
       id="circle4754-7"
       r="27.5"
       cy="44"
       cx="74"
       style="fill:none;stroke:#130067;stroke-width:0.64097238000000001;stroke-miterlimit:4;stroke-opacity:1;stroke-dasharray:none;display:inline"
       transform="matrix(-1.6666992,-2.6118204,2.6118204,-1.6666992,312.89225,475.52108)"
       d="M 101.5,44 C 101.5,59.187831 89.187831,71.5 74,71.5 58.812169,71.5 46.5,59.187831 46.5,44 46.5,28.812169 58.812169,16.5 74,16.5 c 15.187831,0 27.5,12.312169 27.5,27.5 z" /><circle
       sodipodi:ry="22"
       sodipodi:rx="22"
       sodipodi:cy="54"
       sodipodi:cx="36"
       id="circle4-6-3-6-5"
       r="22"
       cy="54"
       cx="36"
       style="fill:none;stroke:#dc0067;stroke-width:1px;display:inline"
       transform="matrix(3.1560224,0,0,3.1560224,70.930931,70.046672)"
       d="M 58,54 C 58,66.150264 48.150264,76 36,76 23.849736,76 14,66.150264 14,54 14,41.849736 23.849736,32 36,32 c 12.150264,0 22,9.849736 22,22 z" /><circle
       sodipodi:ry="22"
       sodipodi:rx="22"
       sodipodi:cy="44"
       sodipodi:cx="74"
       id="circle6-9-8-5-2"
       r="22"
       cy="44"
       cx="74"
       style="fill:none;stroke:#dc0067;stroke-width:1px;display:inline"
       transform="matrix(3.1560224,0,0,3.1560224,70.930931,70.046672)"
       d="M 96,44 C 96,56.150264 86.150264,66 74,66 61.849736,66 52,56.150264 52,44 52,31.849736 61.849736,22 74,22 c 12.150264,0 22,9.849736 22,22 z" /><circle
       sodipodi:ry="29"
       sodipodi:rx="29"
       sodipodi:cy="44"
       sodipodi:cx="74"
       id="circle8-02-0-4-8"
       r="29"
       cy="44"
       cx="74"
       style="fill:none;stroke:#dc0067;stroke-width:6.00012302000000020;stroke-miterlimit:4;stroke-dasharray:none;display:inline"
       transform="matrix(3.1560224,0,0,3.1560224,70.930931,70.046672)"
       d="M 103,44 C 103,60.016258 90.016258,73 74,73 57.983742,73 45,60.016258 45,44 45,27.983742 57.983742,15 74,15 c 16.016258,0 29,12.983742 29,29 z" /><polygon
       id="polygon10-0-6-3-1"
       points="31,44 26,44 30,48 22,48 22,52 30,52 26,56 31,56 37,50 "
       style="fill:#ffb400;fill-opacity:1;display:inline"
       transform="matrix(3.1560224,0,0,3.1560224,70.930931,70.046672)" /><polygon
       id="polygon12-0-7-5-9"
       points="75,47 81,41 73,41 64,50 73,59 81,59 75,53 88,53 88,47 "
       style="fill:#ffb400;fill-opacity:1;display:inline"
       transform="matrix(3.1560224,0,0,3.1560224,70.930931,70.046672)" /><circle
       sodipodi:ry="22"
       sodipodi:rx="22"
       sodipodi:cy="54"
       sodipodi:cx="36"
       id="circle4-9-7-3-8-9"
       r="22"
       cy="54"
       cx="36"
       style="fill:none;stroke:#dc0067;stroke-width:0.99995655000000006;stroke-miterlimit:4;stroke-dasharray:none;display:inline"
       transform="matrix(3.1560224,0,0,3.1560224,58.881951,-62.676804)"
       d="M 58,54 C 58,66.150264 48.150264,76 36,76 23.849736,76 14,66.150264 14,54 14,41.849736 23.849736,32 36,32 c 12.150264,0 22,9.849736 22,22 z" /><path
       inkscape:connector-curvature="0"
       id="path5-4-5-0-0"
       d="m 180.76877,45.988662 c 0.1023,0 0.20438,0 0.30387,0 2.06951,0.79212 4.10021,1.25941 5.77589,2.73545 1.24407,1.09472 3.3169,4.21692 3.04024,6.383 -0.0955,0.74584 -0.79552,1.36783 -1.11457,2.12933 -0.24494,0.58388 -0.24872,1.20904 -0.50668,1.62121 -0.66557,1.065 -2.16488,1.3667 -2.93885,2.43034 -0.73271,1.01057 -0.37054,1.90658 -1.01331,3.24469 -0.86312,-0.14063 -1.78721,-0.22003 -2.02662,0.50653 -0.55022,0.0227 -0.65592,-0.63265 -1.21615,-0.30532 -0.44528,0.15198 0.0372,0.63061 -0.20415,0.91348 -1.37235,-0.42827 -1.27159,1.06909 -2.22937,1.21426 -1.9237,0.29308 -2.02199,-1.92903 -3.34384,-2.73521 -0.94369,0.77783 -2.20947,1.93221 -2.43225,3.14239 -0.53414,2.90194 3.29886,2.36569 4.45887,3.85058 0.52846,0.67529 0.59338,2.01749 1.31716,3.03827 0.66976,0.94478 1.93459,1.61327 2.63493,2.43306 0.34967,0.40944 0.66261,2.24457 0.60792,2.93914 -0.0533,0.69368 -0.63453,1.54477 -0.91214,2.53197 -0.15175,0.54577 -0.0549,1.17888 -0.20415,1.62167 -0.11796,0.35205 -0.47997,0.57458 -0.50662,1.01419 -0.0256,0.39379 0.28196,1.01465 0.40547,1.62144 0.33309,1.64004 0.40978,2.68009 0.70921,4.05178 0.17262,0.79212 0.21141,1.81562 0.40547,2.33145 0.3911,1.03438 2.05684,1.54771 2.22914,2.63472 0.66804,-0.53897 1.41885,-0.7835 2.12811,-1.31702 0.55056,-0.4133 0.72636,-1.15098 1.21585,-1.51914 1.23636,-0.9348 4.11063,-1.02598 5.77621,-0.0975 0.591,0.3296 1.23865,1.24512 2.02673,1.82446 1.8431,1.35445 4.68296,1.25578 4.96535,3.54685 -0.52175,-0.0227 -0.84676,-0.24839 -1.21612,-0.40332 0.0694,0.36997 0.96399,0.7903 1.11472,1.41705 -2.99097,0.11796 -6.36072,-1.17729 -8.00532,0.81231 -0.35945,0.14064 -0.9681,0.0431 -1.21608,0.30238 0.066,1.456748 0.24921,2.715018 -0.1023,3.751218 -0.30619,0.90077 -2.31836,2.41265 -3.14139,2.73317 -0.41233,0.1656 -0.86138,0.0658 -1.21597,0.30329 -1.51247,0.99786 -0.50313,5.13539 -1.01338,7.09527 -0.3907,1.49985 -1.34934,2.58323 -1.51995,4.15477 -0.10026,0.91642 0.13179,1.8172 0.20416,2.83615 0.10207,1.48284 -0.16718,3.10882 0,4.66244 0.15266,1.42681 0.52544,3.50578 0.70934,4.96526 0.25792,2.04585 -0.11909,4.81622 0,7.39855 0.11592,2.51813 -0.21141,4.66425 -0.10253,6.58534 -1.21333,0.93457 -2.61798,0.81571 -3.7492,1.62166 -0.45468,0.32325 -0.56043,0.95136 -1.01318,1.31771 -0.76964,0.62063 -2.04977,0.58025 -3.04017,1.01215 -0.40641,0.18601 -0.6342,0.51333 -1.0132,0.70819 -0.86312,0.44642 -1.74713,0.33322 -2.63472,0.60951 -0.45123,0 -0.52352,-0.35455 -1.01336,-0.30373 -0.57848,0.2663 -0.72157,0.96791 -1.01337,1.518 -0.58577,0.37723 -1.69911,0.18374 -2.22942,-0.0953 -0.85905,0.72293 -1.93148,2.03405 -2.53335,3.34427 -0.28849,0.62925 -0.53191,1.51596 -0.60797,2.23005 -0.32485,3.04961 1.06802,3.87621 3.04011,4.86318 0.82274,0.41262 1.95088,1.08429 2.73599,1.21676 0.53776,0.0839 1.12704,-0.0476 1.62137,0 1.58619,0.16332 2.55801,0.97246 3.74936,1.62212 -8.4323,-0.25746 -16.7351,0.24748 -23.71212,1.6194 0.20121,-2.11187 1.32169,-3.02353 2.12804,-4.66062 0.99194,-2.01455 1.78397,-4.26909 2.43191,-6.48394 0.46737,-1.60035 1.72238,-3.55977 0.50664,-4.45896 -1.33528,0.47069 -2.95629,0.5181 -3.74943,-0.50721 -0.24896,-0.25066 0.0742,-0.4387 0,-0.81208 -1.5026,-2.40698 -0.44159,-6.121 -0.50662,-9.22029 -2.12042,-2.54104 -6.6874,-2.63563 -8.20798,-5.77644 -1.3229,-0.47658 -3.25288,-0.25746 -3.03995,-2.12638 0.12975,-1.15029 1.46848,-1.22311 2.43198,-1.62257 0.97542,-0.40491 1.98816,-1.45902 3.14141,-2.02635 0.45486,-0.23228 0.95433,-0.29398 1.31729,-0.50743 0.99929,-0.58411 2.66379,-2.1012 3.24268,-3.03963 0.95825,-1.55158 -0.0181,-3.72423 0.4054,-6.28297 -0.99566,-0.0975 -1.96668,-0.83703 -3.14136,-1.01283 -0.55823,-0.0794 -1.19249,0.19962 -1.72261,0.0975 -0.75188,-0.14064 -1.02683,-0.93457 -1.62135,-1.11491 -1.76666,2.0361 -3.50447,4.2734 -4.96529,6.4853 -0.2886,0.43939 -0.7034,0.81004 -0.91204,1.21722 -0.52384,1.01941 -0.62125,2.37613 -1.82394,2.93687 -0.47561,-0.67847 -0.0308,-2.9557 0.60806,-2.53197 0.0778,-0.48407 -0.15788,-0.65329 -0.1023,-1.11491 1.89255,-3.68135 3.70043,-7.4446 5.97877,-10.74192 -0.35035,-0.23568 -0.58436,1.00059 -1.01331,0.7091 0.0413,-3.09861 1.92345,-4.35756 3.34385,-6.07722 0.0288,-0.97495 0.87221,-1.23741 1.01344,-2.33281 1.71928,-0.48157 1.60366,-2.53491 2.6347,-3.74941 0.5475,-0.64512 1.19871,-0.78236 1.82383,-1.418868 0.15379,-0.35137 0.12861,-0.88467 0.40545,-1.11468 1.67018,-0.20189 2.64062,-0.55326 3.74941,-1.31725 1.50257,-1.03642 1.57475,-1.62552 2.33058,-3.24333 1.19217,-2.54876 2.37012,-4.5531 3.34393,-7.29648 0.40729,-1.14417 0.98725,-2.04994 0.70957,-3.54435 -0.25199,-1.35626 -1.76936,-3.06208 -2.53351,-5.06552 -0.45891,-1.20791 -0.70639,-2.42036 -1.11466,-3.2456 -0.42464,-0.85631 -1.16603,-1.32383 -1.31734,-2.12865 -0.21753,-1.15619 0.43792,-3.19411 0.7094,-3.74782 0.22456,-0.4632 1.06271,-0.88308 1.52004,-1.41955 1.04327,-1.22493 1.57802,-3.20114 2.73607,-4.05315 0.61079,-0.44959 1.4764,-0.49496 2.12791,-0.81026 1.08011,-0.52377 1.93005,-2.13523 2.93855,-3.24356 0.98407,-1.07884 4.51063,-3.35789 1.92547,-4.25367 -2.23384,-1.49804 -1.57855,-5.02742 -0.10231,-6.3864 0.58541,-0.53784 1.00667,-0.80891 1.64091,-1.26962 0.74648,-0.54191 1.28045,-0.42827 2.00715,-0.14064 0.54648,0.22684 0.66083,0.85949 1.21606,0.91235 0.88294,0.0771 1.66969,-1.10992 2.53308,-1.41865 0.99119,-0.35432 1.63598,-0.25769 2.53344,-0.71 z M 157.36054,164.44719 c 0.48777,-1.40458 1.30285,-3.02149 1.0134,-4.86387 -0.16287,1.79588 -1.15481,2.76199 -1.0134,4.86387 z"
       style="fill:#ffb400;fill-opacity:1;fill-rule:nonzero;display:inline" /></g><g
     id="g3308"
     inkscape:groupmode="layer"
     inkscape:label="ink_ext_XXXXXX"
     transform="matrix(1.25,0,0,-1.25,0,372.04993)"
     style="opacity:1"><g
       id="g4458"
       transform="translate(-11.2,11.2)"><path
         d="m 35.6102,246.355 75.0988,0 0,2 -75.0988,0 0,-2 z"
         style="fill:#a41557;fill-opacity:1;fill-rule:nonzero;stroke:none"
         id="path3446"
         inkscape:connector-curvature="0" /><text
         y="-252.355"
         x="35.610199"
         id="text3456"
         transform="scale(1,-1)"><tspan
           y="-252.355"
           x="35.610199"
           id="tspan3458"
           sodipodi:role="line"
           style="font-size:11px;font-variant:normal;font-weight:normal;writing-mode:lr-tb;fill:#231f20;fill-opacity:1;fill-rule:nonzero;stroke:none;font-family:Oswald;-inkscape-font-specification:Oswald-Regular">Wen suchen wir?</tspan></text>
<text
         y="-235.55499"
         x="35.610199"
         id="text3460"
         transform="scale(1,-1)"><tspan
           y="-235.55499"
           x="35.610199"
           id="tspan3464"
           sodipodi:role="line"
           style="font-size:9px;font-variant:normal;font-weight:300;writing-mode:lr-tb;fill:#231f20;fill-opacity:1;fill-rule:nonzero;stroke:none;font-family:Roboto;-inkscape-font-specification:Roboto">Wir suchen Menschen, die sich am Netzausbau beteiligen wollen</tspan><tspan
           id="tspan3506"
           y="-224.30499"
           x="35.610199"
           sodipodi:role="line"
           style="font-size:9px;font-variant:normal;font-weight:300;writing-mode:lr-tb;fill:#231f20;fill-opacity:1;fill-rule:nonzero;stroke:none;font-family:Roboto;-inkscape-font-specification:Roboto">oder die Idee weitertragen und -entwickeln wollen (z.B. bei der Technik).</tspan></text>
</g><g
       id="g4466"
       transform="translate(-11.2,9.6)"><path
         d="m 35.6102,196.556 126.057,0 0,1.99961 -126.057,0 0,-1.99961 z"
         style="fill:#a41557;fill-opacity:1;fill-rule:nonzero;stroke:none"
         id="path3448"
         inkscape:connector-curvature="0" /><text
         y="-202.55499"
         x="35.610199"
         id="text3466"
         transform="scale(1,-1)"><tspan
           id="tspan3468"
           sodipodi:role="line"
           y="-202.55499"
           x="35.610199 44.00256 49.28706 53.359024 58.797791 66.985916 69.330292 74.684654 79.855392 83.986763 89.243752 94.961502 100.08274"
           style="font-size:11px;font-variant:normal;font-weight:normal;writing-mode:lr-tb;fill:#231f20;fill-opacity:1;fill-rule:nonzero;stroke:none;font-family:Oswald;-inkscape-font-specification:Oswald-Regular">Warum gerade Freifunk?</tspan></text>
<text
         y="-185.755"
         x="35.610199"
         id="text3470"
         transform="scale(1,-1)"><tspan
           id="tspan3513"
           y="-185.755"
           x="35.610199"
           sodipodi:role="line"
           style="font-size:9px;font-variant:normal;font-weight:300;writing-mode:lr-tb;fill:#231f20;fill-opacity:1;fill-rule:nonzero;stroke:none;font-family:Roboto;-inkscape-font-specification:Roboto">Mit Freifunk entsteht ein freies, unabhängiges und dezentral organisiertes Netzwerk. Das hilft </tspan><tspan
           id="tspan3517"
           y="-174.505"
           x="35.610199"
           sodipodi:role="line"
           style="font-size:9px;font-variant:normal;font-weight:300;writing-mode:lr-tb;fill:#231f20;fill-opacity:1;fill-rule:nonzero;stroke:none;font-family:Roboto;-inkscape-font-specification:Roboto">uns, eigene Interessen zu wahren und sie denen der anderer, kommerzieller Anbieter (die meist</tspan><tspan
           y="-163.255"
           x="35.610199"
           sodipodi:role="line"
           style="font-size:9px;font-variant:normal;font-weight:300;writing-mode:lr-tb;fill:#231f20;fill-opacity:1;fill-rule:nonzero;stroke:none;font-family:Roboto;-inkscape-font-specification:Roboto"
           id="tspan4508">gewinnorientiert arbeiten) entgegen zu stellen.</tspan><tspan
           id="tspan3515"
           y="-152.005"
           x="35.610199"
           sodipodi:role="line"
           style="font-size:9px;font-variant:normal;font-weight:300;writing-mode:lr-tb;fill:#231f20;fill-opacity:1;fill-rule:nonzero;stroke:none;font-family:Roboto;-inkscape-font-specification:Roboto" /></text>
</g><g
       id="g4476"
       transform="translate(-11.2,8)"><path
         d="m 35.6102,135.956 327.55133,0 0,2 -327.55133,0 0,-2 z"
         style="fill:#a41557;fill-opacity:1;fill-rule:nonzero;stroke:none"
         id="path3450"
         inkscape:connector-curvature="0" /><text
         y="-141.955"
         x="35.610199"
         id="text3478"
         transform="scale(1,-1)"><tspan
           y="-141.955"
           x="35.610199"
           id="tspan3480"
           sodipodi:role="line"
           style="font-size:11px;font-variant:normal;font-weight:normal;writing-mode:lr-tb;fill:#231f20;fill-opacity:1;fill-rule:nonzero;stroke:none;font-family:Oswald;-inkscape-font-specification:Oswald-Regular">Muss ich Angst vor Abmahnungen und Urheberrechtsverletzungen haben?</tspan></text>
<text
         y="-125.155"
         x="35.610199"
         id="text3482"
         transform="scale(1,-1)"><tspan
           id="tspan3524"
           y="-125.155"
           x="35.610199"
           sodipodi:role="line"
           style="font-size:9px;font-variant:normal;font-weight:300;writing-mode:lr-tb;fill:#231f20;fill-opacity:1;fill-rule:nonzero;stroke:none;font-family:Roboto;-inkscape-font-specification:Roboto">Nein. Router mit der Freifunk Göttingen Software leiten den Internetverkehr durch von uns be-</tspan><tspan
           y="-113.905"
           x="35.610199"
           sodipodi:role="line"
           style="font-size:9px;font-variant:normal;font-weight:300;writing-mode:lr-tb;fill:#231f20;fill-opacity:1;fill-rule:nonzero;stroke:none;font-family:Roboto;-inkscape-font-specification:Roboto"
           id="tspan4516">treute Server. Nur diese erscheinen nach außen, so dass der Internetanschluss des Freifunk-</tspan><tspan
           y="-102.655"
           x="35.610199"
           sodipodi:role="line"
           style="font-size:9px;font-variant:normal;font-weight:300;writing-mode:lr-tb;fill:#231f20;fill-opacity:1;fill-rule:nonzero;stroke:none;font-family:Roboto;-inkscape-font-specification:Roboto"
           id="tspan4354">Knotens für Externe gar nicht sichtbar wird.</tspan></text>
<text
         xml:space="preserve"
         style="font-size:12px;font-style:normal;font-variant:normal;font-weight:normal;font-stretch:normal;line-height:125%;letter-spacing:0px;word-spacing:0px;fill:#000000;fill-opacity:1;stroke:none;font-family:Roboto;-inkscape-font-specification:Roboto"
         x="43.635494"
         y="190.04405"
         id="text4344"
         sodipodi:linespacing="125%"
         transform="matrix(0.8,0,0,-0.8,11.2,289.63994)"><tspan
           sodipodi:role="line"
           id="tspan4346"
           x="43.635494"
           y="190.04405" /></text>
</g><g
       id="g4485"
       transform="translate(-11.2,6.4)"><path
         d="m 35.6102,75.3559 237.294,0 0,2 -237.294,0 0,-2 z"
         style="fill:#a41557;fill-opacity:1;fill-rule:nonzero;stroke:none"
         id="path3452"
         inkscape:connector-curvature="0" /><text
         y="-81.355003"
         x="35.610199"
         id="text3490"
         transform="scale(1,-1)"><tspan
           y="-81.355003"
           x="35.610199"
           id="tspan3492"
           sodipodi:role="line"
           style="font-size:11px;font-variant:normal;font-weight:normal;writing-mode:lr-tb;fill:#231f20;fill-opacity:1;fill-rule:nonzero;stroke:none;font-family:Oswald;-inkscape-font-specification:Oswald-Regular">Sind offene Netzwerke sicher für den Internetnutzer?</tspan></text>
<text
         y="-64.555"
         x="35.610199"
         id="text3494"
         transform="scale(1,-1)"><tspan
           id="tspan3537"
           y="-64.555"
           x="35.610199"
           sodipodi:role="line"
           style="font-size:9px;font-variant:normal;font-weight:300;writing-mode:lr-tb;fill:#231f20;fill-opacity:1;fill-rule:nonzero;stroke:none;font-family:Roboto;-inkscape-font-specification:Roboto">Die Sicherheit von (offenen) Netzen ist immer sehr eingeschränkt. Allerdings ist der Zugriff </tspan><tspan
           y="-53.305"
           x="35.610199"
           sodipodi:role="line"
           style="font-size:9px;font-variant:normal;font-weight:300;writing-mode:lr-tb;fill:#231f20;fill-opacity:1;fill-rule:nonzero;stroke:none;font-family:Roboto;-inkscape-font-specification:Roboto"
           id="tspan4520">über Freifunk Göttingen nicht unsicherer als über andere (kommerzielle) Anbieter.</tspan><tspan
           id="tspan3541"
           y="-42.055"
           x="35.610199"
           sodipodi:role="line"
           style="font-size:9px;font-variant:normal;font-weight:300;writing-mode:lr-tb;fill:#231f20;fill-opacity:1;fill-rule:nonzero;stroke:none;font-family:Roboto;-inkscape-font-specification:Roboto">Datenpakete können grundsätzlich an vielen Durchgangsstellen im Internet mitgelesen werden.</tspan><tspan
           y="-30.805"
           x="35.610199"
           sodipodi:role="line"
           style="font-size:9px;font-variant:normal;font-weight:300;writing-mode:lr-tb;fill:#231f20;fill-opacity:1;fill-rule:nonzero;stroke:none;font-family:Roboto;-inkscape-font-specification:Roboto"
           id="tspan4524">Wir empfehlen daher die Nutzung von Ende-zu-Ende-Verschlüsselung (z.B. HTTPS).</tspan></text>
</g><g
       id="g4497"
       transform="translate(0,-1.6)"><text
         y="-266.94424"
         x="312.99802"
         transform="scale(1,-1)"
         id="text236"><tspan
           style="font-size:8.69999980999999956px;font-variant:normal;font-weight:normal;writing-mode:lr-tb;fill:#231f20;fill-opacity:1;fill-rule:nonzero;stroke:none;font-family:Oswald;-inkscape-font-specification:Oswald-Regular"
           x="312.99802 317.07626 319.31912 323.6315 327.59491 329.36212 331.54941 335.70819 339.97153 344.1554 346.30881 350.27222 352.0394 354.36621 358.66901 360.98056 364.05945 366.3093 370.49753 373.57642 375.95847 379.76715 383.73056 385.49777 389.33951 393.49829"
           y="-266.94424"
           sodipodi:role="line"
           id="tspan238">eine lokale Initiative von</tspan></text>
<path
         inkscape:connector-curvature="0"
         id="path240"
         style="fill:#231f20;fill-opacity:1;fill-rule:nonzero;stroke:none"
         d="m 316.70003,246.60624 0,11.636 0.984,0 0,2.192 -0.984,0 0,0.738 c 0,0.203 0.074,0.346 0.222,0.428 0.149,0.082 0.403,0.123 0.762,0.123 l 0,2.168 -1.723,0 c -0.726,0 -1.293,-0.19 -1.699,-0.569 -0.406,-0.378 -0.609,-0.904 -0.609,-1.576 l 0,-1.312 -0.75,0 0,-2.192 0.75,0 0,-11.636 3.047,0 z m 5.184,0 0,10.722 c 0,0.282 0.045,0.489 0.135,0.621 0.09,0.133 0.228,0.2 0.416,0.2 0.203,0 0.345,-0.057 0.428,-0.17 0.082,-0.114 0.123,-0.33 0.123,-0.651 l 0,-4.336 3.07,0 0,5.344 c 0,0.781 -0.166,1.369 -0.498,1.764 -0.332,0.394 -0.83,0.592 -1.494,0.592 -0.477,0 -0.895,-0.116 -1.254,-0.346 -0.36,-0.231 -0.668,-0.588 -0.926,-1.072 l -0.047,0 0,1.16 -3,0 0,-13.828 3.047,0 z m 8.555,11.806 c 0.086,0.129 0.227,0.194 0.422,0.194 0.195,0 0.336,-0.065 0.422,-0.194 0.086,-0.129 0.129,-0.345 0.129,-0.65 l 0,-2.613 -1.102,0 0,2.613 c 0,0.305 0.043,0.521 0.129,0.65 z m -0.129,-5.326 4.149,0 0,4.699 c 0,0.93 -0.321,1.659 -0.961,2.186 -0.641,0.527 -1.528,0.791 -2.66,0.791 -1.289,0 -2.207,-0.293 -2.754,-0.879 -0.547,-0.586 -0.82,-1.605 -0.82,-3.059 l 0,-6.621 c 0,-1.437 0.277,-2.453 0.832,-3.047 0.554,-0.593 1.476,-0.89 2.765,-0.89 1.141,0 2.026,0.275 2.655,0.826 0.628,0.551 0.943,1.326 0.943,2.326 l 0,2.567 -3.047,0 0,-2.59 c 0,-0.305 -0.043,-0.522 -0.129,-0.651 -0.086,-0.129 -0.227,-0.193 -0.422,-0.193 -0.195,0 -0.336,0.064 -0.422,0.193 -0.086,0.129 -0.129,0.346 -0.129,0.651 l 0,3.691 z m 8.579,-6.48 0,13.828 -3.047,0 0,-13.828 3.047,0 z m 0,14.66 0,2.625 -3.047,0 0,-2.625 3.047,0 z m 5.042,-14.66 0,11.636 0.984,0 0,2.192 -0.984,0 0,0.738 c 0,0.203 0.074,0.346 0.222,0.428 0.149,0.082 0.403,0.123 0.762,0.123 l 0,2.168 -1.723,0 c -0.726,0 -1.293,-0.19 -1.699,-0.569 -0.406,-0.378 -0.609,-0.904 -0.609,-1.576 l 0,-1.312 -0.75,0 0,-2.192 0.75,0 0,-11.636 3.047,0 z m 6.286,13.828 0,-10.735 c 0,-0.289 -0.041,-0.496 -0.123,-0.621 -0.082,-0.125 -0.217,-0.187 -0.405,-0.187 -0.203,0 -0.349,0.058 -0.439,0.176 -0.09,0.117 -0.135,0.328 -0.135,0.632 l 0,10.735 -3.047,0 0,-11.742 c 0,-0.774 0.166,-1.354 0.498,-1.741 0.332,-0.386 0.83,-0.58 1.494,-0.58 0.485,0 0.901,0.112 1.248,0.334 0.348,0.223 0.651,0.573 0.909,1.049 l 0.07,0 0,-1.148 3,0 0,13.828 -3.07,0 z m 7.517,-13.828 0,10.722 c 0,0.282 0.045,0.489 0.135,0.621 0.089,0.133 0.228,0.2 0.416,0.2 0.203,0 0.345,-0.057 0.428,-0.17 0.082,-0.114 0.123,-0.33 0.123,-0.651 l 0,-10.722 3.07,0 0,11.73 c 0,0.781 -0.166,1.369 -0.498,1.764 -0.332,0.394 -0.83,0.592 -1.494,0.592 -0.477,0 -0.895,-0.116 -1.254,-0.346 -0.36,-0.231 -0.668,-0.588 -0.926,-1.072 l -0.047,0 0,1.16 -3,0 0,-13.828 3.047,0 z m 8.619,0 0,7.242 0.047,0 1.207,-7.242 3.211,0 -1.512,7.851 1.512,5.977 -3.117,0 -1.301,-6.024 -0.047,0 0,9.481 -3.047,0 0,-17.285 3.047,0 z m 8.824,0 0,3.527 -3.176,0 0,-3.527 3.176,0 z m 4.566,0 0,10.722 c 0,0.282 0.045,0.489 0.135,0.621 0.089,0.133 0.228,0.2 0.416,0.2 0.203,0 0.345,-0.057 0.427,-0.17 0.082,-0.114 0.123,-0.33 0.123,-0.651 l 0,-10.722 3.071,0 0,11.73 c 0,0.781 -0.166,1.369 -0.498,1.764 -0.332,0.394 -0.83,0.592 -1.494,0.592 -0.477,0 -0.895,-0.116 -1.254,-0.346 -0.36,-0.231 -0.668,-0.588 -0.926,-1.072 l -0.047,0 0,1.16 -3,0 0,-13.828 3.047,0 z m 8.694,11.806 c 0.086,0.129 0.226,0.194 0.422,0.194 0.195,0 0.335,-0.065 0.421,-0.194 0.086,-0.129 0.129,-0.345 0.129,-0.65 l 0,-2.613 -1.101,0 0,2.613 c 0,0.305 0.043,0.521 0.129,0.65 z m -0.129,-5.326 4.148,0 0,4.699 c 0,0.93 -0.32,1.659 -0.961,2.186 -0.64,0.527 -1.527,0.791 -2.66,0.791 -1.289,0 -2.207,-0.293 -2.754,-0.879 -0.547,-0.586 -0.82,-1.605 -0.82,-3.059 l 0,-6.621 c 0,-1.437 0.277,-2.453 0.832,-3.047 0.555,-0.593 1.476,-0.89 2.766,-0.89 1.14,0 2.025,0.275 2.654,0.826 0.629,0.551 0.943,1.326 0.943,2.326 l 0,2.567 -3.047,0 0,-2.59 c 0,-0.305 -0.043,-0.522 -0.129,-0.651 -0.086,-0.129 -0.226,-0.193 -0.421,-0.193 -0.196,0 -0.336,0.064 -0.422,0.193 -0.086,0.129 -0.129,0.346 -0.129,0.651 l 0,3.691 z m 6.043,5.133 0,-9.188 c 0,-0.937 0.154,-1.576 0.463,-1.916 0.308,-0.339 0.834,-0.509 1.576,-0.509 l 1.922,0 0,2.226 -0.106,0 c -0.312,0 -0.521,0.057 -0.627,0.17 -0.105,0.113 -0.158,0.385 -0.158,0.815 l 0,8.402 0.891,0 0,2.215 -0.891,0 0,2.566 -3.07,0 0,-2.566 -0.774,0 0,-2.215 0.774,0" /></g><flowRoot
       xml:space="preserve"
       id="flowRoot4526"
       style="font-size:12px;font-style:normal;font-variant:normal;font-weight:normal;font-stretch:normal;text-align:center;line-height:125%;letter-spacing:0px;word-spacing:0px;text-anchor:middle;fill:#000000;fill-opacity:1;stroke:none;font-family:Roboto;-inkscape-font-specification:Roboto"
       transform="matrix(0.8,0,0,-0.8,0,286.43994)"><flowRegion
         id="flowRegion4528"><rect
           id="rect4530"
           width="466.78494"
           height="20.669443"
           x="30.430014"
           y="326.69205"
           style="font-weight:normal;text-align:center;text-anchor:middle;-inkscape-font-specification:Roboto" /></flowRegion><flowPara
         id="flowPara4532"
         style="font-size:12px;font-style:normal;font-variant:normal;font-weight:normal;font-stretch:normal;font-family:Oswald;-inkscape-font-specification:Oswald">Weitere Informationen und Kontaktmöglichkeiten auf http://goettingen.freifunk.net/</flowPara></flowRoot></g></svg>